<?xml version="1.0" encoding="UTF-8"?>
<svg width="202px" height="177px" viewBox="0 0 202 177" version="1.1" xmlns="http://www.w3.org/2000/svg" xmlns:xlink="http://www.w3.org/1999/xlink">
    <title>Group</title>
    <defs>
        <radialGradient cx="50%" cy="0%" fx="50%" fy="0%" r="98.1367226%" gradientTransform="translate(0.500000,0.000000),scale(0.875021,1.000000),rotate(81.058784),translate(-0.500000,-0.000000)" id="radialGradient-1">
            <stop stop-color="#FFFFFF" stop-opacity="0.5" offset="0%"></stop>
            <stop stop-color="#000000" stop-opacity="0.5" offset="100%"></stop>
        </radialGradient>
        <path d="M198.320312,43.7695313 L176.660156,6.25 C174.433594,2.3828125 170.3125,0 165.839844,0 L122.519531,0 C118.066406,0 113.925781,2.3828125 111.699219,6.25 L100.332031,26.09375 L88.3203125,6.25 C86.09375,2.3828125 81.953125,0 77.5,0 L34.1601562,0 C29.7070312,0 25.5664062,2.3828125 23.3398438,6.25 L1.6796875,43.7695313 C-0.546875,47.6367188 -0.546875,52.4023438 1.6796875,56.25 L23.3398438,93.75 C25.5664062,97.6171875 29.6875,99.9804687 34.1601562,99.9804687 L57.8320312,99.9804687 L47.0117188,118.769531 C44.7851562,122.636719 44.7851562,127.402344 47.0117188,131.25 L68.671875,168.75 C70.9179688,172.65625 75.0390625,175 79.4921875,175 L122.832031,175 C127.285156,175 131.425781,172.65625 133.652344,168.789063 L155.3125,131.269531 C157.539062,127.402344 157.539062,122.65625 155.3125,118.789062 L144.472656,100 L165.859375,100 C170.3125,100 174.453125,97.6367188 176.679688,93.7695312 L198.320312,56.25 C200.566406,52.4023438 200.566406,47.6367188 198.320312,43.7695313 Z M100.527344,50.5664062 L115.273438,75 L86.4257812,75 L100.527344,50.5664062 L100.527344,50.5664062 Z M34.1601562,87.5 L12.5,50 L34.1601562,12.5 L77.5390625,12.5 L93.2226562,38.4765625 L65.0195312,87.5 L34.1601562,87.5 Z M144.492188,125 L122.832031,162.5 L79.5117188,162.5 L57.8515625,125 L79.5117188,87.5 L122.832031,87.5 L144.492188,125 L144.492188,125 Z M165.839844,87.5 L137.5,87.5 L107.675781,38.2226562 L122.519531,12.5 L165.839844,12.5 L187.5,50 L165.839844,87.5 L165.839844,87.5 Z" id="path-2"></path>
    </defs>
    <g id="Page-1" stroke="none" stroke-width="1" fill="none" fill-rule="evenodd">
        <g id="Group" transform="translate(1.000000, 1.000000)" fill-rule="nonzero">
            <g id="Shape">
                <use fill="#007AFE" xlink:href="#path-2"></use>
                <use stroke="#979797" stroke-width="1" fill="url(#radialGradient-1)" xlink:href="#path-2"></use>
            </g>
        </g>
    </g>
</svg>