<?xml version="1.0" encoding="UTF-8"?>
<svg width="605px" height="181px" viewBox="0 0 605 181" version="1.1" xmlns="http://www.w3.org/2000/svg" xmlns:xlink="http://www.w3.org/1999/xlink">
    <title>guinsoo-app</title>
    <defs>
        <linearGradient x1="70.742896%" y1="65.1340953%" x2="0.197175203%" y2="100%" id="linearGradient-1">
            <stop stop-color="#00B2FF" offset="0%"></stop>
            <stop stop-color="#007AFE" offset="100%"></stop>
        </linearGradient>
    </defs>
    <g id="guinsoo-app" stroke="none" stroke-width="1" fill="none" fill-rule="evenodd">
        <g id="guinsoo" transform="translate(13.000000, 2.000000)" fill="url(#linearGradient-1)" fill-rule="nonzero">
            <path d="M76.4238837,66.7940591 C124.567733,66.7940591 158.071773,55.3215384 158.071773,41.1441145 L158.071773,25.7075114 C158.071773,11.5767236 124.931907,0.0575665844 76.4238837,0.0575665844 C27.9158605,0.0575665844 0.214316062,11.6233598 0.214316062,25.7075114 L0.214316062,41.1441145 C0.190053448,55.3215384 28.2557567,66.7940591 76.4238837,66.7940591 Z M67.9750389,115.249136 C67.9750389,101.864529 73.0006448,88.9696021 82.1050036,78.8728513 L78.9731042,78.8728513 C38.501195,78.8728513 15.7038807,71.1545497 4.1716931,60.5914361 C1.74386418,62.5734772 0.262888506,65.4182893 0.214314053,68.4729646 L0.214314053,89.7624186 C0.190053448,102.657345 25.0753006,113.546913 67.9750389,115.249136 Z M69.6745192,133.367325 C35.1022343,132.224736 14.4171314,125.019434 4.26880613,115.319091 C1.80437421,117.269828 0.321123108,120.135971 0.190053448,123.200619 L0.190053448,144.490073 C0.190053448,158.38768 29.6638973,169.976791 80.0656272,169.976791 L94.7782709,169.976791 C81.7152547,161.426864 72.6937058,148.2705 69.6745192,133.367325 L69.6745192,133.367325 Z M143.164903,120.052672 L117.842646,109.20974 C116.434506,111.005237 114.370851,112.194461 112.088692,112.590869 L110.82622,134.370004 C112.452866,134.789731 113.933842,135.629183 115.0992,136.79509 L143.213459,123.970118 C142.897841,122.68762 142.897841,121.358487 143.164903,120.052672 L143.164903,120.052672 Z M123.645158,77.3338545 C107.597208,77.3338545 92.6903381,85.3552918 84.314328,98.506718 C79.8650503,105.465225 77.5118987,113.472398 77.5164004,121.638305 C77.5164004,125.602387 78.0748075,129.566469 79.1673305,133.390643 C79.3858351,134.136823 79.6043397,134.859685 79.8471226,135.582547 C83.7802056,146.845205 92.2047722,156.149139 103.299951,161.419037 C109.636584,164.427076 116.580175,165.966072 123.645158,165.943015 C149.088806,165.943015 169.773908,146.075706 169.773908,121.638305 C169.773908,97.2009028 149.088805,77.3338545 123.645158,77.3338545 L123.645158,77.3338545 Z M152.536323,131.105466 C149.574371,131.105466 146.782368,129.79965 144.985775,127.537792 L117.259967,140.176219 C118.549208,143.775061 117.355636,147.76405 114.273738,150.156379 C111.193879,152.556448 106.884664,152.86337 103.469899,150.925878 C100.060443,148.982724 98.2764766,145.20204 99.0026933,141.458716 C99.731042,137.704497 102.790107,134.789731 106.698911,134.160141 L107.961382,112.357688 C103.204773,111.014868 100.413294,106.291652 101.651156,101.680706 C102.889018,97.0697609 107.710371,94.2318413 112.549979,95.2654977 C117.405637,96.3148135 120.48898,100.885167 119.542127,105.572112 L144.864383,116.415043 C147.534995,112.917323 152.390653,111.70478 156.517962,113.500277 C160.628955,115.29069 162.883449,119.592226 161.932021,123.830209 C160.965756,128.072488 157.057734,131.098539 152.536323,131.105466 L152.536323,131.105466 Z" id="Shape"></path>
        </g>
        <text id="Guinsoo" font-family="Orbitron-Regular_Bold, Orbitron" font-size="80" font-weight="bold" fill="#000000" fill-opacity="0.85">
            <tspan x="226.081064" y="153">Guinsoo</tspan>
        </text>
    </g>
</svg>